<svg width="18" height="17" viewBox="0 0 18 17" fill="none" xmlns="http://www.w3.org/2000/svg">
<path d="M9.35689 4.12004C6.24997 4.12004 3.72203 6.417 3.72203 9.24003C3.72203 12.0631 6.24997 14.36 9.35689 14.36C12.4638 14.36 14.9918 12.0631 14.9918 9.24003C14.9918 6.417 12.4638 4.12004 9.35689 4.12004ZM9.35689 13.08C7.02617 13.08 5.13075 11.3578 5.13075 9.24003C5.13075 7.12228 7.02617 5.40004 9.35689 5.40004C11.6876 5.40004 13.583 7.12228 13.583 9.24003C13.583 11.3578 11.6876 13.08 9.35689 13.08Z" fill="#8C8C8C"/>
<path d="M8.65254 6.68004H10.0613V9.88003H8.65254V6.68004ZM7.24382 2.20004H11.47V3.48004H7.24382V2.20004Z" fill="#8C8C8C"/>
<path d="M14.4936 5.85249L13.0851 4.57266L14.0812 3.66758L15.4897 4.94741L14.4936 5.85249Z" fill="#8C8C8C"/>
</svg>
